<svg xmlns="http://www.w3.org/2000/svg" width="120" height="160" viewBox="0 0 12 16">
<!-- bottle top -->
	<!-- row 0 -->
	<rect x="5"  y="0" width="1.02" height="1.02" style="fill: #d2795f" />
	<rect x="6"  y="0" width="1.02" height="1.02" style="fill: #bf5e3d" />
	<rect x="7"  y="0" width="1.02" height="1.02" style="fill: #ac5031" />
	<rect x="8"  y="0" width="1.02" height="1.02" style="fill: #ede7e6" />
	<!-- row 1 -->
	<rect x="4"  y="1" width="1.02" height="2.02" style="fill: #e4e3e3" />
	<rect x="5"  y="1" width="1.02" height="1.02" style="fill: #cba89c" />
	<rect x="6"  y="1" width="1.02" height="1.02" style="fill: #c6a296" />
	<rect x="7"  y="1" width="1.02" height="1.02" style="fill: #c2a195" />
	<rect x="8"  y="1" width="1.02" height="1.02" style="fill: #dcd7d7" />
	<rect x="9"  y="1" width="1.02" height="1.02" style="fill: #f7f7f7" />
	<!-- row 2 -->
	<rect x="5"  y="2" width="1.02" height="1.02" style="fill: #c3694e" />
	<rect x="6"  y="2" width="1.02" height="1.02" style="fill: #af4c2e" />
	<rect x="7"  y="2" width="1.02" height="1.02" style="fill: #983b20" />
	<rect x="8"  y="2" width="1.02" height="1.02" style="fill: #c7bfbf" />
	<rect x="9"  y="2" width="1.02" height="1.02" style="fill: #f5f5f5" />
<!-- bottle neck -->
	<!-- row 3 -->
	<rect x="5"  y="3" width="1.02" height="2.02" style="fill: #cccbcb" />
	<rect x="6"  y="3" width="1.02" height="2.02" style="fill: #f8f7f7" />
	<rect x="7"  y="3" width="1.02" height="2.02" style="fill: #bab9ba" />
	<rect x="8"  y="3" width="1.02" height="1.02" style="fill: #f2f2f2" />
	<!-- row 4 -->
	<rect x="8"  y="4" width="1.02" height="1.02" style="fill: #f6f6f6" />
<!-- bottle body -->
	<!-- row 5 -->
	<rect x="4"  y="5" width="1.02" height="1.02" style="fill: #e3e4e5" />
	<rect x="5"  y="5" width="1.02" height="1.02" style="fill: #f5f5f5" />
	<rect x="6"  y="5" width="2.02" height="1.02" style="fill: #f3eeee" />
	<rect x="8"  y="5" width="1.02" height="1.02" style="fill: #bebebe" />
	<rect x="9"  y="5" width="1.02" height="1.02" style="fill: #ebeceb" />
	<!-- row 6 -->
	<rect x="3"  y="6" width="1.02" height="1.02" style="fill: #e1e3e0" /><!-- glass -->
	<rect x="4"  y="6" width="1.02" height="1.02" style="fill: #4b922e" /><!-- liquid -->
	<rect x="5"  y="6" width="1.02" height="1.02" style="fill: #dce0db" /><!-- glass -->
	<rect x="6"  y="6" width="1.02" height="1.02" style="fill: #5c894e" /><!-- liquid -->
	<rect x="7"  y="6" width="1.02" height="1.02" style="fill: #3b6f25" /><!-- liquid -->
	<rect x="8"  y="6" width="1.02" height="3.02" style="fill: #4b8d2d" /><!-- liquid -->
	<rect x="9"  y="6" width="1.02" height="1.02" style="fill: #adb2ab" /><!-- glass -->
	<rect x="10" y="6" width="1.02" height="1.02" style="fill: #ececec" /><!-- glass -->
	<!-- row 7 -->
	<rect x="2"  y="7" width="1.02" height="1.02" style="fill: #e5e3e5" /><!-- glass -->
	<rect x="3"  y="7" width="1.02" height="4.02" style="fill: #457630" /><!-- liquid -->
	<rect x="4"  y="7" width="1.02" height="2.02" style="fill: #e3e4e7" /><!-- glass -->
	<rect x="5"  y="7" width="1.02" height="2.02" style="fill: #507b3f" /><!-- liquid -->
	<rect x="6"  y="7" width="2.02" height="1.02" style="fill: #3d7427" /><!-- liquid -->
	<rect x="9"  y="7" width="1.02" height="2.02" style="fill: #427927" /><!-- liquid -->
	<rect x="10" y="7" width="1.02" height="4.02" style="fill: #aaaea8" /><!-- glass -->
	<rect x="11" y="7" width="1.02" height="5.02" style="fill: #f2f2f2" /><!-- glass -->
	<!-- row 8 -->
	<rect x="2"  y="8" width="1.02" height="4.02" style="fill: #d2d1d2" /><!-- glass -->
	<rect x="6"  y="8" width="1.02" height="1.02" style="fill: #366722" /><!-- liquid -->
	<rect x="7"  y="8" width="1.02" height="3.02" style="fill: #3d7427" /><!-- liquid -->
	<!-- row 9 -->
	<rect x="4"  y="9" width="1.02" height="2.02" style="fill: #4f9133" /><!-- liquid -->
	<rect x="5"  y="9" width="1.02" height="2.02" style="fill: #3f7628" /><!-- liquid -->
	<rect x="6"  y="9" width="1.02" height="1.02" style="fill: #2f581d" /><!-- liquid -->
	<rect x="8"  y="9" width="1.02" height="2.02" style="fill: #abb1a9" /><!-- glass -->
	<rect x="9"  y="9" width="1.02" height="2.02" style="fill: #5b7651" /><!-- liquid -->
	<!-- row 10 -->
	<rect x="6"  y="10" width="1.02" height="1.02" style="fill: #326020" /><!-- liquid -->
	<!-- row 11 -->
	<rect x="3"  y="11" width="1.02" height="1.02" style="fill: #a9afa7" /><!-- glass -->
	<rect x="4"  y="11" width="1.02" height="1.02" style="fill: #417b29" /><!-- liquid -->
	<rect x="5"  y="11" width="2.02" height="1.02" style="fill: #4a8a2e" /><!-- liquid -->
	<rect x="7"  y="11" width="1.02" height="1.02" style="fill: #a9afab" /><!-- glass -->
	<rect x="8"  y="11" width="1.02" height="1.02" style="fill: #6d8167" /><!-- liquid -->
	<rect x="9"  y="11" width="1.02" height="1.02" style="fill: #9fa59e" /><!-- glass -->
	<rect x="10" y="11" width="1.02" height="1.02" style="fill: #b6b7b6" /><!-- glass -->
<!-- bottle bottom -->
	<!-- row 12 -->
	<rect x="3"  y="12" width="1.02" height="1.02" style="fill: #f3f3f3" />
	<rect x="4"  y="12" width="3.02" height="1.02" style="fill: #b5b5b3" />
	<rect x="7"  y="12" width="1.02" height="1.02" style="fill: #b9b9b9" />
	<rect x="8"  y="12" width="1.02" height="1.02" style="fill: #b5b5b4" />
	<rect x="9"  y="12" width="1.02" height="1.02" style="fill: #eaeaea" />
	<rect x="10" y="12" width="1.02" height="1.02" style="fill: #f6f6f6" />
</svg>
